<?xml version="1.0" standalone="no"?><!DOCTYPE svg PUBLIC "-//W3C//DTD SVG 1.1//EN" "http://www.w3.org/Graphics/SVG/1.1/DTD/svg11.dtd"><svg t="1508404253063" class="icon" style="" viewBox="0 0 1024 1024" version="1.1" xmlns="http://www.w3.org/2000/svg" p-id="5130" xmlns:xlink="http://www.w3.org/1999/xlink" width="200" height="200"><defs><style type="text/css"></style></defs><path d="M512 0c-282.781538 0-512 229.218462-512 512s229.218462 512 512 512 512-229.218462 512-512S794.781538 0 512 0zM512 945.230769c-238.867692 0-433.230769-194.363077-433.230769-433.230769s194.363077-433.230769 433.230769-433.230769 433.230769 194.363077 433.230769 433.230769S750.907077 945.230769 512 945.230769z" p-id="5131" fill="#ffcd32"></path><path d="M388.923077 275.692308c-21.740308 0-39.384615 17.644308-39.384615 39.384615l0 393.846154c0 21.740308 17.644308 39.384615 39.384615 39.384615s39.384615-17.644308 39.384615-39.384615l0-393.846154C428.307692 293.336615 410.702769 275.692308 388.923077 275.692308z" p-id="5132" fill="#ffcd32"></path><path d="M625.230769 275.692308c-21.740308 0-39.384615 17.644308-39.384615 39.384615l0 393.846154c0 21.740308 17.644308 39.384615 39.384615 39.384615s39.384615-17.644308 39.384615-39.384615l0-393.846154C664.615385 293.336615 647.010462 275.692308 625.230769 275.692308z" p-id="5133" fill="#ffcd32"></path></svg>