<?xml version="1.0" standalone="no"?><!DOCTYPE svg PUBLIC "-//W3C//DTD SVG 1.1//EN" "http://www.w3.org/Graphics/SVG/1.1/DTD/svg11.dtd"><svg t="1508405310435" class="icon" style="" viewBox="0 0 1024 1024" version="1.1" xmlns="http://www.w3.org/2000/svg" p-id="6142" xmlns:xlink="http://www.w3.org/1999/xlink" width="200" height="200"><defs><style type="text/css"></style></defs><path d="M491.424 813.856l-295.712-295.712a188 188 0 1 1 265.856-265.856L512 302.72l50.432-50.432a188 188 0 1 1 265.856 265.856l-295.712 295.712a28.064 28.064 0 0 1-20.576 8.224 28.064 28.064 0 0 1-20.576-8.224z m302.944-329.664a140 140 0 1 0-197.984-197.952L512 370.624l-84.384-84.384a140 140 0 1 0-197.984 197.952L512 766.56l282.368-282.368z" p-id="6143" fill="#ffcd32"></path></svg>