<?xml version="1.0" standalone="no"?><!DOCTYPE svg PUBLIC "-//W3C//DTD SVG 1.1//EN" "http://www.w3.org/Graphics/SVG/1.1/DTD/svg11.dtd"><svg t="1508405527521" class="icon" style="" viewBox="0 0 1024 1024" version="1.1" xmlns="http://www.w3.org/2000/svg" p-id="6860" xmlns:xlink="http://www.w3.org/1999/xlink" width="200" height="200"><defs><style type="text/css"></style></defs><path d="M459.872886 600.27124c-28.531766 42.043474-57.467738 71.155454-96.77285 94.354782-19.504177 11.512172-41.424375 20.101787-65.286805 26.166911-42.861094 10.894096-87.319567 12.948891-127.201823 10.053963-5.843067-0.424671-10.16141-0.862645-12.712507-1.187033-17.51999-2.225687-29.918344-18.233233-27.692657-35.753224 2.225687-17.51999 18.233233-29.918344 35.753224-27.692657 1.447975 0.184195 4.628405 0.507559 9.282392 0.84525 33.622705 2.44058 71.670176 0.682544 106.815557-8.250902 18.293608-4.649894 34.61838-11.046568 48.532246-19.258584 35.841228-21.154767 61.5937-49.894264 90.567534-97.341807 11.136619 20.405708 24.109046 39.75025 38.715689 58.063301z m90.582884-143.960475c46.550106-53.90357 114.5589-96.331806 180.195675-101.408419 39.110685-3.024887 67.311924-4.839205 86.194955-5.665011 8.142431-0.35611 13.766511-0.496303 17.121926-0.510629l7.077171 0.323364c53.07981 0.11154 71.598545-49.038782 30.904809-83.59474l-54.248423-46.066083c-13.462589-11.431331-33.643171-9.784834-45.074502 3.676732-11.431331 13.462589-9.784834 33.643171 3.676732 45.074501l21.216165 18.01527c-17.928289 1.015118-41.465308 2.632962-71.801159 4.979398-77.607387 6.002702-153.879362 49.740768-209.715953 107.963705 4.937443 7.750506 9.970052 16.093504 15.096806 25.02081 5.529936 9.627245 12.121038 20.495759 19.355798 32.191102z" fill="#ffcd32" p-id="6861"></path><path d="M797.519255 732.417668l-21.216165 18.01527c-13.462589 11.431331-15.109086 31.611912-3.676732 45.074501 11.431331 13.462589 31.611912 15.109086 45.074501 3.676732l54.248423-46.06506c40.693736-34.555958 22.175001-83.70628-30.904808-83.59474l-6.329136 0.013303c-4.10345 0.294712-9.727529 0.155542-17.869961-0.200567-18.884055-0.825806-47.085294-2.640125-86.194955-5.665012-66.745013-5.162569-122.936691-39.26725-166.193804-93.160587a314.711052 314.711052 0 0 1-24.931783-35.954815c-3.575425-6.009865-6.987121-11.859072-12.411656-21.243794-3.647056-6.313787-3.647056-6.313787-7.343231-12.695111-24.847871-42.830395-41.331255-67.735572-63.605516-92.980485-21.549762-24.424224-45.626062-44.740904-73.808882-61.375737-23.423432-13.824839-51.594995-24.375105-83.57632-32.280129-30.093329-7.437375-61.997905-12.173226-93.850294-14.805165a661.580461 661.580461 0 0 0-30.761546-1.841947c-5.687524-0.202614-9.845209-0.272199-12.228484-0.273223-17.661206-0.00614-31.983371 14.305792-31.989512 31.968022-0.00614 17.661206 14.306815 31.983371 31.966999 31.988488 7.25011 0.00307 20.521341 0.474813 37.745597 1.898229 28.699588 2.370996 57.348011 6.623848 83.769724 13.153552 26.412503 6.52868 48.97943 14.979126 66.413463 25.269473 22.190351 13.09727 41.119431 29.071048 58.361083 48.612063 18.765352 21.268354 33.364832 43.327721 56.241819 82.760747 3.6358 6.277971 3.6358 6.277971 7.292066 12.608131 5.549378 9.60064 9.073638 15.642227 12.820977 21.940664a378.622537 378.622537 0 0 0 30.016581 43.284742c53.590439 66.768549 125.229916 110.248743 211.138346 116.893057 30.337898 2.346436 53.874917 3.96428 71.803206 4.979398z" fill="#ffcd32" p-id="6862"></path></svg>