<?xml version="1.0" standalone="no"?><!DOCTYPE svg PUBLIC "-//W3C//DTD SVG 1.1//EN" "http://www.w3.org/Graphics/SVG/1.1/DTD/svg11.dtd"><svg t="1508474051104" class="icon" style="" viewBox="0 0 1024 1024" version="1.1" xmlns="http://www.w3.org/2000/svg" p-id="9084" xmlns:xlink="http://www.w3.org/1999/xlink" width="200" height="200"><defs><style type="text/css"></style></defs><path d="M805.236364 465.454545h-167.563637C581.818182 465.454545 535.272727 418.909091 535.272727 363.054545v-51.2C535.272727 256 581.818182 209.454545 637.672727 209.454545h167.563637C861.090909 209.454545 907.636364 256 907.636364 311.854545v51.2c0 55.854545-46.545455 102.4-102.4 102.4z m-167.563637-209.454545c-30.254545 0-55.854545 25.6-55.854545 55.854545v51.2c0 30.254545 25.6 55.854545 55.854545 55.854546h167.563637c30.254545 0 55.854545-25.6 55.854545-55.854546v-51.2c0-30.254545-25.6-55.854545-55.854545-55.854545h-167.563637zM386.327273 465.454545H218.763636C162.909091 465.454545 116.363636 418.909091 116.363636 363.054545v-51.2C116.363636 256 162.909091 209.454545 218.763636 209.454545h167.563637C442.181818 209.454545 488.727273 256 488.727273 311.854545v51.2c0 55.854545-46.545455 102.4-102.4 102.4z m-167.563637-209.454545C188.509091 256 162.909091 281.6 162.909091 311.854545v51.2C162.909091 393.309091 188.509091 418.909091 218.763636 418.909091h167.563637c30.254545 0 55.854545-25.6 55.854545-55.854546v-51.2c0-30.254545-25.6-55.854545-55.854545-55.854545H218.763636zM386.327273 768H218.763636C162.909091 768 116.363636 721.454545 116.363636 665.6v-51.2C116.363636 558.545455 162.909091 512 218.763636 512h167.563637c55.854545 0 102.4 46.545455 102.4 102.4v51.2c0 55.854545-46.545455 102.4-102.4 102.4z m-167.563637-209.454545C188.509091 558.545455 162.909091 584.145455 162.909091 614.4v51.2C162.909091 695.854545 188.509091 721.454545 218.763636 721.454545h167.563637c30.254545 0 55.854545-25.6 55.854545-55.854545v-51.2c0-30.254545-25.6-55.854545-55.854545-55.854545H218.763636zM805.236364 768h-167.563637C581.818182 768 535.272727 721.454545 535.272727 665.6v-51.2c0-55.854545 46.545455-102.4 102.4-102.4h167.563637c55.854545 0 102.4 46.545455 102.4 102.4v51.2c0 55.854545-46.545455 102.4-102.4 102.4z m-167.563637-209.454545c-30.254545 0-55.854545 25.6-55.854545 55.854545v51.2c0 30.254545 25.6 55.854545 55.854545 55.854545h167.563637c30.254545 0 55.854545-25.6 55.854545-55.854545v-51.2c0-30.254545-25.6-55.854545-55.854545-55.854545h-167.563637z" p-id="9085" fill="#ffcd32"></path></svg>